<svg width="139" height="36" viewBox="0 0 139 36" fill="none" xmlns="http://www.w3.org/2000/svg">
<path d="M0.325027 0V27.8055H5.0894V0H0.325027Z" fill="#213F7D"/>
<path d="M28.5388 19.7304C29.2869 11.6552 25.2313 7.59779 18.7344 7.59779C12.4344 7.59779 8.41813 11.8939 8.41813 17.8608C8.41813 24.1459 12.395 28.3227 19.0888 28.3227C22.0419 28.3227 25.3888 27.2884 27.4363 25.1403L24.365 22.0773C23.2625 23.2309 20.9394 23.9072 19.1675 23.9072C15.7813 23.9072 13.6944 22.1569 13.3794 19.7304H28.5388ZM13.4581 15.7127C14.1669 13.1669 16.2931 11.8939 18.8919 11.8939C21.6481 11.8939 23.6169 13.1669 23.9319 15.7127H13.4581Z" fill="#213F7D"/>
<path d="M51.3372 27.8055V17.5028C51.3372 11.337 47.6753 7.87624 43.1078 7.87624C40.6666 7.87624 38.6978 8.87072 36.7291 10.8199L36.4141 8.1547H32.1222V27.8055H36.8866V17.7812C36.8866 14.7978 38.8947 12.2917 41.8478 12.2917C44.9191 12.2917 46.5334 14.5591 46.5334 17.5425V27.8055H51.3372Z" fill="#213F7D"/>
<path d="M64.876 12.2519C67.9079 12.2519 70.5067 14.5591 70.5067 17.9801C70.5067 21.5204 67.9079 23.7481 64.876 23.7481C61.8048 23.7481 59.3635 21.4011 59.3635 17.9801C59.3635 14.4398 61.8048 12.2519 64.876 12.2519ZM70.8217 0V10.8597C69.6798 8.83094 66.4904 7.71713 64.4429 7.71713C58.7729 7.71713 54.5598 11.2177 54.5598 17.9801C54.5598 24.4243 58.8517 28.2431 64.561 28.2431C66.9235 28.2431 69.3254 27.4475 70.8217 25.1006L71.1367 27.8055H75.6254V0H70.8217Z" fill="#213F7D"/>
<path d="M95.1619 10.2232C92.9175 8.23425 90.6337 7.63757 87.6019 7.63757C84.0581 7.63757 79.4119 9.22873 79.4119 13.7635C79.4119 18.2188 83.7825 19.5713 87.4444 19.8497C90.2006 20.0088 91.3031 20.5657 91.3031 21.9182C91.3031 23.3503 89.61 24.305 87.7987 24.2652C85.6331 24.2254 82.4831 23.0718 81.105 21.5204L78.7425 24.9812C81.5775 27.9646 84.6488 28.4818 87.72 28.4818C93.2719 28.4818 96.0675 25.4983 96.0675 22.0376C96.0675 16.8265 91.4212 15.9912 87.7594 15.7525C85.2787 15.5934 84.1369 14.8773 84.1369 13.6044C84.1369 12.3713 85.3969 11.6552 87.6806 11.6552C89.5312 11.6552 91.1062 12.0928 92.4844 13.4055L95.1619 10.2232Z" fill="#213F7D"/>
<path d="M108.518 23.5889C105.25 23.5889 103.006 21.0829 103.006 18.0199C103.006 14.9569 105.053 12.4508 108.518 12.4508C111.983 12.4508 114.031 14.9569 114.031 18.0199C114.031 21.0829 111.786 23.5889 108.518 23.5889ZM119.268 36V8.19448H114.779L114.464 10.8994C112.968 8.7116 110.369 7.75691 108.164 7.75691C102.179 7.75691 98.2021 12.2519 98.2021 18.0199C98.2021 23.7481 101.785 28.2829 108.006 28.2829C110.054 28.2829 113.086 27.6464 114.464 25.4983V36H119.268Z" fill="#213F7D"/>
<path d="M123.487 8.19448V27.8055H128.291V17.463C128.291 13.8431 130.614 12.4906 133.134 12.4906C134.709 12.4906 135.615 12.9282 136.599 13.7635L138.765 9.54696C137.702 8.47293 135.772 7.67735 133.764 7.67735C131.795 7.67735 129.787 8.03536 128.291 10.4619L127.937 8.19448H123.487Z" fill="#213F7D"/>
</svg>
